<mxfile host="app.diagrams.net" agent="Mozilla/5.0 (Windows NT 10.0; Win64; x64) AppleWebKit/537.36 (KHTML, like Gecko) Chrome/131.0.0.0 Safari/537.36" version="25.0.3">
  <diagram name="Page-1" id="jXeNIfA0lCEvLWwut_Vh">
    <mxGraphModel dx="6077" dy="3954" grid="1" gridSize="10" guides="1" tooltips="1" connect="1" arrows="1" fold="1" page="1" pageScale="1" pageWidth="827" pageHeight="1169" math="0" shadow="0">
      <root>
        <mxCell id="0" />
        <mxCell id="1" parent="0" />
        <mxCell id="3hMW9B1TIkrEw7CaCHnL-1" value="&lt;b&gt;&lt;font style=&quot;font-size: 20px;&quot;&gt;High level&lt;/font&gt;&lt;/b&gt;" style="text;html=1;align=center;verticalAlign=middle;whiteSpace=wrap;rounded=0;strokeWidth=7;" parent="1" vertex="1">
          <mxGeometry x="679" y="1560" width="150" height="30" as="geometry" />
        </mxCell>
        <mxCell id="3hMW9B1TIkrEw7CaCHnL-4" style="rounded=0;orthogonalLoop=1;jettySize=auto;html=1;exitX=0;exitY=0.25;exitDx=0;exitDy=0;endArrow=none;endFill=0;strokeWidth=4;" parent="1" source="3hMW9B1TIkrEw7CaCHnL-3" edge="1">
          <mxGeometry relative="1" as="geometry">
            <mxPoint x="189" y="1818" as="targetPoint" />
          </mxGeometry>
        </mxCell>
        <mxCell id="3hMW9B1TIkrEw7CaCHnL-11" style="edgeStyle=orthogonalEdgeStyle;rounded=0;orthogonalLoop=1;jettySize=auto;html=1;exitX=1;exitY=0.75;exitDx=0;exitDy=0;entryX=0;entryY=0.5;entryDx=0;entryDy=0;endArrow=none;endFill=0;strokeWidth=3;" parent="1" source="3hMW9B1TIkrEw7CaCHnL-3" target="3hMW9B1TIkrEw7CaCHnL-10" edge="1">
          <mxGeometry relative="1" as="geometry" />
        </mxCell>
        <mxCell id="3hMW9B1TIkrEw7CaCHnL-12" style="edgeStyle=orthogonalEdgeStyle;rounded=0;orthogonalLoop=1;jettySize=auto;html=1;exitX=1;exitY=0.25;exitDx=0;exitDy=0;entryX=0;entryY=0.5;entryDx=0;entryDy=0;endArrow=none;endFill=0;strokeWidth=3;" parent="1" source="3hMW9B1TIkrEw7CaCHnL-3" target="3hMW9B1TIkrEw7CaCHnL-9" edge="1">
          <mxGeometry relative="1" as="geometry" />
        </mxCell>
        <mxCell id="3hMW9B1TIkrEw7CaCHnL-13" style="edgeStyle=orthogonalEdgeStyle;rounded=0;orthogonalLoop=1;jettySize=auto;html=1;exitX=0.5;exitY=1;exitDx=0;exitDy=0;endArrow=none;endFill=0;strokeWidth=3;" parent="1" source="3hMW9B1TIkrEw7CaCHnL-3" edge="1">
          <mxGeometry relative="1" as="geometry">
            <mxPoint x="364" y="1990" as="targetPoint" />
          </mxGeometry>
        </mxCell>
        <mxCell id="3hMW9B1TIkrEw7CaCHnL-3" value="&lt;b&gt;&lt;font style=&quot;font-size: 17px;&quot;&gt;Control&lt;br&gt;Unit&lt;/font&gt;&lt;/b&gt;" style="rounded=1;whiteSpace=wrap;html=1;strokeWidth=4;" parent="1" vertex="1">
          <mxGeometry x="279" y="1780" width="170" height="150" as="geometry" />
        </mxCell>
        <mxCell id="3hMW9B1TIkrEw7CaCHnL-5" style="rounded=0;orthogonalLoop=1;jettySize=auto;html=1;endArrow=none;endFill=0;strokeWidth=4;exitX=0;exitY=0.75;exitDx=0;exitDy=0;" parent="1" source="3hMW9B1TIkrEw7CaCHnL-3" edge="1">
          <mxGeometry relative="1" as="geometry">
            <mxPoint x="189" y="1893" as="targetPoint" />
            <mxPoint x="279" y="1881" as="sourcePoint" />
          </mxGeometry>
        </mxCell>
        <mxCell id="3hMW9B1TIkrEw7CaCHnL-6" value="&lt;font style=&quot;font-size: 18px;&quot;&gt;&lt;b&gt;A&lt;/b&gt;&lt;/font&gt;" style="text;html=1;align=center;verticalAlign=middle;whiteSpace=wrap;rounded=0;" parent="1" vertex="1">
          <mxGeometry x="160" y="1804" width="20" height="30" as="geometry" />
        </mxCell>
        <mxCell id="3hMW9B1TIkrEw7CaCHnL-7" value="&lt;font style=&quot;font-size: 18px;&quot;&gt;&lt;b&gt;B&lt;/b&gt;&lt;/font&gt;" style="text;html=1;align=center;verticalAlign=middle;whiteSpace=wrap;rounded=0;" parent="1" vertex="1">
          <mxGeometry x="160" y="1880" width="20" height="30" as="geometry" />
        </mxCell>
        <mxCell id="3hMW9B1TIkrEw7CaCHnL-15" style="edgeStyle=orthogonalEdgeStyle;rounded=0;orthogonalLoop=1;jettySize=auto;html=1;strokeWidth=3;endArrow=none;endFill=0;" parent="1" source="3hMW9B1TIkrEw7CaCHnL-9" edge="1">
          <mxGeometry relative="1" as="geometry">
            <mxPoint x="824" y="1630" as="targetPoint" />
          </mxGeometry>
        </mxCell>
        <mxCell id="3hMW9B1TIkrEw7CaCHnL-21" style="edgeStyle=orthogonalEdgeStyle;rounded=0;orthogonalLoop=1;jettySize=auto;html=1;exitX=1;exitY=0.5;exitDx=0;exitDy=0;endArrow=none;endFill=0;entryX=0;entryY=0.25;entryDx=0;entryDy=0;strokeWidth=3;" parent="1" source="3hMW9B1TIkrEw7CaCHnL-9" target="3hMW9B1TIkrEw7CaCHnL-25" edge="1">
          <mxGeometry relative="1" as="geometry">
            <mxPoint x="959" y="1729" as="targetPoint" />
          </mxGeometry>
        </mxCell>
        <mxCell id="3hMW9B1TIkrEw7CaCHnL-9" value="&lt;span style=&quot;font-size: 17px;&quot;&gt;&lt;b&gt;Arithmatic Unit&lt;/b&gt;&lt;/span&gt;" style="rounded=1;whiteSpace=wrap;html=1;strokeWidth=4;" parent="1" vertex="1">
          <mxGeometry x="739" y="1654" width="170" height="150" as="geometry" />
        </mxCell>
        <mxCell id="3hMW9B1TIkrEw7CaCHnL-17" style="edgeStyle=orthogonalEdgeStyle;rounded=0;orthogonalLoop=1;jettySize=auto;html=1;exitX=0.5;exitY=1;exitDx=0;exitDy=0;endArrow=none;endFill=0;strokeWidth=3;" parent="1" source="3hMW9B1TIkrEw7CaCHnL-10" edge="1">
          <mxGeometry relative="1" as="geometry">
            <mxPoint x="824" y="2050" as="targetPoint" />
          </mxGeometry>
        </mxCell>
        <mxCell id="3hMW9B1TIkrEw7CaCHnL-22" style="edgeStyle=orthogonalEdgeStyle;rounded=0;orthogonalLoop=1;jettySize=auto;html=1;exitX=1;exitY=0.5;exitDx=0;exitDy=0;strokeWidth=3;endArrow=none;endFill=0;entryX=0;entryY=0.75;entryDx=0;entryDy=0;" parent="1" source="3hMW9B1TIkrEw7CaCHnL-10" target="3hMW9B1TIkrEw7CaCHnL-25" edge="1">
          <mxGeometry relative="1" as="geometry">
            <mxPoint x="959" y="1945" as="targetPoint" />
          </mxGeometry>
        </mxCell>
        <mxCell id="3hMW9B1TIkrEw7CaCHnL-10" value="&lt;span style=&quot;font-size: 17px;&quot;&gt;&lt;b&gt;Logic Unit&lt;/b&gt;&lt;/span&gt;" style="rounded=1;whiteSpace=wrap;html=1;strokeWidth=4;" parent="1" vertex="1">
          <mxGeometry x="739" y="1870" width="170" height="150" as="geometry" />
        </mxCell>
        <mxCell id="3hMW9B1TIkrEw7CaCHnL-14" value="&lt;font style=&quot;font-size: 18px;&quot;&gt;&lt;b&gt;S&lt;/b&gt;&lt;/font&gt;" style="text;html=1;align=center;verticalAlign=middle;whiteSpace=wrap;rounded=0;" parent="1" vertex="1">
          <mxGeometry x="354" y="1990" width="20" height="30" as="geometry" />
        </mxCell>
        <mxCell id="3hMW9B1TIkrEw7CaCHnL-16" value="&lt;font style=&quot;font-size: 18px;&quot;&gt;&lt;b&gt;S&lt;/b&gt;&lt;/font&gt;" style="text;html=1;align=center;verticalAlign=middle;whiteSpace=wrap;rounded=0;" parent="1" vertex="1">
          <mxGeometry x="814" y="1600" width="20" height="30" as="geometry" />
        </mxCell>
        <mxCell id="3hMW9B1TIkrEw7CaCHnL-20" value="&lt;font style=&quot;font-size: 18px;&quot;&gt;&lt;b&gt;S&lt;/b&gt;&lt;/font&gt;" style="text;html=1;align=center;verticalAlign=middle;whiteSpace=wrap;rounded=0;" parent="1" vertex="1">
          <mxGeometry x="814" y="2050" width="20" height="30" as="geometry" />
        </mxCell>
        <mxCell id="3hMW9B1TIkrEw7CaCHnL-29" style="edgeStyle=orthogonalEdgeStyle;rounded=0;orthogonalLoop=1;jettySize=auto;html=1;exitX=0;exitY=0.5;exitDx=0;exitDy=0;entryX=1;entryY=0.5;entryDx=0;entryDy=0;endArrow=none;endFill=0;strokeWidth=3;" parent="1" source="3hMW9B1TIkrEw7CaCHnL-23" target="3hMW9B1TIkrEw7CaCHnL-25" edge="1">
          <mxGeometry relative="1" as="geometry" />
        </mxCell>
        <mxCell id="3hMW9B1TIkrEw7CaCHnL-23" value="&lt;font style=&quot;font-size: 18px;&quot;&gt;&lt;b&gt;Y&lt;/b&gt;&lt;/font&gt;" style="text;html=1;align=center;verticalAlign=middle;whiteSpace=wrap;rounded=0;" parent="1" vertex="1">
          <mxGeometry x="1319" y="1830" width="20" height="30" as="geometry" />
        </mxCell>
        <mxCell id="3hMW9B1TIkrEw7CaCHnL-25" value="&lt;b&gt;&lt;font style=&quot;font-size: 17px;&quot;&gt;Control&lt;br&gt;Unit&lt;/font&gt;&lt;/b&gt;" style="rounded=1;whiteSpace=wrap;html=1;strokeWidth=4;" parent="1" vertex="1">
          <mxGeometry x="1079" y="1770" width="170" height="150" as="geometry" />
        </mxCell>
        <mxCell id="_FG94MKBac0RokUtaq1R-21" style="edgeStyle=orthogonalEdgeStyle;rounded=0;orthogonalLoop=1;jettySize=auto;html=1;exitX=1;exitY=0.5;exitDx=0;exitDy=0;exitPerimeter=0;endArrow=none;endFill=0;jumpStyle=none;strokeWidth=7;" edge="1" parent="1" source="_FG94MKBac0RokUtaq1R-10">
          <mxGeometry relative="1" as="geometry">
            <mxPoint x="2706" y="-830" as="targetPoint" />
          </mxGeometry>
        </mxCell>
        <mxCell id="_FG94MKBac0RokUtaq1R-10" value="" style="verticalLabelPosition=bottom;shadow=0;align=center;html=1;verticalAlign=top;shape=mxgraph.electrical.logic_gates.logic_gate;operation=and;negating=1;negSize=0.15;strokeWidth=7;" vertex="1" parent="1">
          <mxGeometry x="2316" y="-860" width="100" height="60" as="geometry" />
        </mxCell>
        <mxCell id="_FG94MKBac0RokUtaq1R-22" style="edgeStyle=orthogonalEdgeStyle;rounded=0;orthogonalLoop=1;jettySize=auto;html=1;exitX=1;exitY=0.5;exitDx=0;exitDy=0;exitPerimeter=0;endArrow=none;endFill=0;strokeWidth=7;" edge="1" parent="1" source="_FG94MKBac0RokUtaq1R-11">
          <mxGeometry relative="1" as="geometry">
            <mxPoint x="2706" y="-650" as="targetPoint" />
          </mxGeometry>
        </mxCell>
        <mxCell id="_FG94MKBac0RokUtaq1R-11" value="" style="verticalLabelPosition=bottom;shadow=0;align=center;html=1;verticalAlign=top;shape=mxgraph.electrical.logic_gates.logic_gate;operation=and;negating=1;negSize=0.15;strokeWidth=7;" vertex="1" parent="1">
          <mxGeometry x="2316" y="-680" width="100" height="60" as="geometry" />
        </mxCell>
        <mxCell id="_FG94MKBac0RokUtaq1R-23" style="edgeStyle=orthogonalEdgeStyle;rounded=0;orthogonalLoop=1;jettySize=auto;html=1;exitX=0;exitY=0.25;exitDx=0;exitDy=0;exitPerimeter=0;endArrow=oval;endFill=1;startArrow=none;startFill=0;strokeWidth=7;" edge="1" parent="1" source="_FG94MKBac0RokUtaq1R-14">
          <mxGeometry relative="1" as="geometry">
            <mxPoint x="2427" y="-830" as="targetPoint" />
            <mxPoint x="2451" y="-765" as="sourcePoint" />
            <Array as="points">
              <mxPoint x="2427" y="-760" />
            </Array>
          </mxGeometry>
        </mxCell>
        <mxCell id="_FG94MKBac0RokUtaq1R-24" style="edgeStyle=orthogonalEdgeStyle;rounded=0;orthogonalLoop=1;jettySize=auto;html=1;endArrow=oval;endFill=1;exitX=0;exitY=0.75;exitDx=0;exitDy=0;exitPerimeter=0;strokeWidth=7;" edge="1" parent="1" source="_FG94MKBac0RokUtaq1R-14">
          <mxGeometry relative="1" as="geometry">
            <mxPoint x="2426" y="-650" as="targetPoint" />
            <mxPoint x="2446" y="-735" as="sourcePoint" />
            <Array as="points">
              <mxPoint x="2426" y="-730" />
            </Array>
          </mxGeometry>
        </mxCell>
        <mxCell id="_FG94MKBac0RokUtaq1R-14" value="" style="verticalLabelPosition=bottom;shadow=0;align=center;html=1;verticalAlign=top;shape=mxgraph.electrical.logic_gates.logic_gate;operation=or;strokeWidth=7;" vertex="1" parent="1">
          <mxGeometry x="2451" y="-775" width="100" height="60" as="geometry" />
        </mxCell>
        <mxCell id="_FG94MKBac0RokUtaq1R-25" value="" style="verticalLabelPosition=bottom;shadow=0;align=center;html=1;verticalAlign=top;shape=mxgraph.electrical.logic_gates.inverter_2;strokeWidth=7;" vertex="1" parent="1">
          <mxGeometry x="2606" y="-775" width="100" height="60" as="geometry" />
        </mxCell>
        <mxCell id="_FG94MKBac0RokUtaq1R-26" style="edgeStyle=orthogonalEdgeStyle;rounded=0;orthogonalLoop=1;jettySize=auto;html=1;exitX=1;exitY=0.5;exitDx=0;exitDy=0;exitPerimeter=0;entryX=0;entryY=0.5;entryDx=0;entryDy=0;entryPerimeter=0;endArrow=none;endFill=0;strokeWidth=7;" edge="1" parent="1" source="_FG94MKBac0RokUtaq1R-14" target="_FG94MKBac0RokUtaq1R-25">
          <mxGeometry relative="1" as="geometry" />
        </mxCell>
        <mxCell id="_FG94MKBac0RokUtaq1R-27" value="" style="endArrow=oval;html=1;rounded=0;edgeStyle=orthogonalEdgeStyle;endFill=1;strokeWidth=7;" edge="1" parent="1">
          <mxGeometry width="50" height="50" relative="1" as="geometry">
            <mxPoint x="2706" y="-685" as="sourcePoint" />
            <mxPoint x="2576" y="-745" as="targetPoint" />
          </mxGeometry>
        </mxCell>
        <mxCell id="_FG94MKBac0RokUtaq1R-33" style="edgeStyle=orthogonalEdgeStyle;rounded=0;orthogonalLoop=1;jettySize=auto;html=1;exitX=1;exitY=0.5;exitDx=0;exitDy=0;exitPerimeter=0;endArrow=none;endFill=0;jumpStyle=none;strokeWidth=7;" edge="1" source="_FG94MKBac0RokUtaq1R-34" parent="1">
          <mxGeometry relative="1" as="geometry">
            <mxPoint x="2706" y="-520" as="targetPoint" />
          </mxGeometry>
        </mxCell>
        <mxCell id="_FG94MKBac0RokUtaq1R-34" value="" style="verticalLabelPosition=bottom;shadow=0;align=center;html=1;verticalAlign=top;shape=mxgraph.electrical.logic_gates.logic_gate;operation=and;negating=1;negSize=0.15;strokeWidth=7;" vertex="1" parent="1">
          <mxGeometry x="2316" y="-550" width="100" height="60" as="geometry" />
        </mxCell>
        <mxCell id="_FG94MKBac0RokUtaq1R-35" style="edgeStyle=orthogonalEdgeStyle;rounded=0;orthogonalLoop=1;jettySize=auto;html=1;exitX=1;exitY=0.5;exitDx=0;exitDy=0;exitPerimeter=0;endArrow=none;endFill=0;strokeWidth=7;" edge="1" source="_FG94MKBac0RokUtaq1R-36" parent="1">
          <mxGeometry relative="1" as="geometry">
            <mxPoint x="2706" y="-340" as="targetPoint" />
          </mxGeometry>
        </mxCell>
        <mxCell id="_FG94MKBac0RokUtaq1R-36" value="" style="verticalLabelPosition=bottom;shadow=0;align=center;html=1;verticalAlign=top;shape=mxgraph.electrical.logic_gates.logic_gate;operation=and;negating=1;negSize=0.15;strokeWidth=7;" vertex="1" parent="1">
          <mxGeometry x="2316" y="-370" width="100" height="60" as="geometry" />
        </mxCell>
        <mxCell id="_FG94MKBac0RokUtaq1R-37" style="edgeStyle=orthogonalEdgeStyle;rounded=0;orthogonalLoop=1;jettySize=auto;html=1;exitX=0;exitY=0.25;exitDx=0;exitDy=0;exitPerimeter=0;endArrow=oval;endFill=1;startArrow=none;startFill=0;strokeWidth=7;" edge="1" source="_FG94MKBac0RokUtaq1R-39" parent="1">
          <mxGeometry relative="1" as="geometry">
            <mxPoint x="2427" y="-520" as="targetPoint" />
            <mxPoint x="2451" y="-455" as="sourcePoint" />
            <Array as="points">
              <mxPoint x="2427" y="-450" />
            </Array>
          </mxGeometry>
        </mxCell>
        <mxCell id="_FG94MKBac0RokUtaq1R-38" style="edgeStyle=orthogonalEdgeStyle;rounded=0;orthogonalLoop=1;jettySize=auto;html=1;endArrow=oval;endFill=1;exitX=0;exitY=0.75;exitDx=0;exitDy=0;exitPerimeter=0;strokeWidth=7;" edge="1" source="_FG94MKBac0RokUtaq1R-39" parent="1">
          <mxGeometry relative="1" as="geometry">
            <mxPoint x="2426" y="-340" as="targetPoint" />
            <mxPoint x="2446" y="-425" as="sourcePoint" />
            <Array as="points">
              <mxPoint x="2426" y="-420" />
            </Array>
          </mxGeometry>
        </mxCell>
        <mxCell id="_FG94MKBac0RokUtaq1R-39" value="" style="verticalLabelPosition=bottom;shadow=0;align=center;html=1;verticalAlign=top;shape=mxgraph.electrical.logic_gates.logic_gate;operation=or;strokeWidth=7;" vertex="1" parent="1">
          <mxGeometry x="2451" y="-465" width="100" height="60" as="geometry" />
        </mxCell>
        <mxCell id="_FG94MKBac0RokUtaq1R-43" value="" style="verticalLabelPosition=bottom;shadow=0;align=center;html=1;verticalAlign=top;shape=mxgraph.electrical.logic_gates.inverter_2;strokeWidth=7;" vertex="1" parent="1">
          <mxGeometry x="2606" y="-465" width="100" height="60" as="geometry" />
        </mxCell>
        <mxCell id="_FG94MKBac0RokUtaq1R-44" style="edgeStyle=orthogonalEdgeStyle;rounded=0;orthogonalLoop=1;jettySize=auto;html=1;exitX=1;exitY=0.5;exitDx=0;exitDy=0;exitPerimeter=0;entryX=0;entryY=0.5;entryDx=0;entryDy=0;entryPerimeter=0;endArrow=none;endFill=0;strokeWidth=7;" edge="1" source="_FG94MKBac0RokUtaq1R-39" target="_FG94MKBac0RokUtaq1R-43" parent="1">
          <mxGeometry relative="1" as="geometry" />
        </mxCell>
        <mxCell id="_FG94MKBac0RokUtaq1R-45" value="" style="endArrow=oval;html=1;rounded=0;edgeStyle=orthogonalEdgeStyle;endFill=1;strokeWidth=7;" edge="1" parent="1">
          <mxGeometry width="50" height="50" relative="1" as="geometry">
            <mxPoint x="2706" y="-375" as="sourcePoint" />
            <mxPoint x="2576" y="-435" as="targetPoint" />
          </mxGeometry>
        </mxCell>
        <mxCell id="_FG94MKBac0RokUtaq1R-51" style="edgeStyle=orthogonalEdgeStyle;rounded=0;orthogonalLoop=1;jettySize=auto;html=1;exitX=1;exitY=0.5;exitDx=0;exitDy=0;exitPerimeter=0;endArrow=none;endFill=0;jumpStyle=none;strokeWidth=7;" edge="1" source="_FG94MKBac0RokUtaq1R-52" parent="1">
          <mxGeometry relative="1" as="geometry">
            <mxPoint x="2706" y="-210" as="targetPoint" />
          </mxGeometry>
        </mxCell>
        <mxCell id="_FG94MKBac0RokUtaq1R-52" value="" style="verticalLabelPosition=bottom;shadow=0;align=center;html=1;verticalAlign=top;shape=mxgraph.electrical.logic_gates.logic_gate;operation=and;negating=1;negSize=0.15;strokeWidth=7;" vertex="1" parent="1">
          <mxGeometry x="2316" y="-240" width="100" height="60" as="geometry" />
        </mxCell>
        <mxCell id="_FG94MKBac0RokUtaq1R-53" style="edgeStyle=orthogonalEdgeStyle;rounded=0;orthogonalLoop=1;jettySize=auto;html=1;exitX=1;exitY=0.5;exitDx=0;exitDy=0;exitPerimeter=0;endArrow=none;endFill=0;strokeWidth=7;" edge="1" source="_FG94MKBac0RokUtaq1R-54" parent="1">
          <mxGeometry relative="1" as="geometry">
            <mxPoint x="2706" y="-30" as="targetPoint" />
          </mxGeometry>
        </mxCell>
        <mxCell id="_FG94MKBac0RokUtaq1R-54" value="" style="verticalLabelPosition=bottom;shadow=0;align=center;html=1;verticalAlign=top;shape=mxgraph.electrical.logic_gates.logic_gate;operation=and;negating=1;negSize=0.15;strokeWidth=7;" vertex="1" parent="1">
          <mxGeometry x="2316" y="-60" width="100" height="60" as="geometry" />
        </mxCell>
        <mxCell id="_FG94MKBac0RokUtaq1R-55" style="edgeStyle=orthogonalEdgeStyle;rounded=0;orthogonalLoop=1;jettySize=auto;html=1;exitX=0;exitY=0.25;exitDx=0;exitDy=0;exitPerimeter=0;endArrow=oval;endFill=1;startArrow=none;startFill=0;strokeWidth=7;" edge="1" source="_FG94MKBac0RokUtaq1R-57" parent="1">
          <mxGeometry relative="1" as="geometry">
            <mxPoint x="2427" y="-210" as="targetPoint" />
            <mxPoint x="2451" y="-145" as="sourcePoint" />
            <Array as="points">
              <mxPoint x="2427" y="-140" />
            </Array>
          </mxGeometry>
        </mxCell>
        <mxCell id="_FG94MKBac0RokUtaq1R-56" style="edgeStyle=orthogonalEdgeStyle;rounded=0;orthogonalLoop=1;jettySize=auto;html=1;endArrow=oval;endFill=1;exitX=0;exitY=0.75;exitDx=0;exitDy=0;exitPerimeter=0;strokeWidth=7;" edge="1" source="_FG94MKBac0RokUtaq1R-57" parent="1">
          <mxGeometry relative="1" as="geometry">
            <mxPoint x="2426" y="-30" as="targetPoint" />
            <mxPoint x="2446" y="-115" as="sourcePoint" />
            <Array as="points">
              <mxPoint x="2426" y="-110" />
            </Array>
          </mxGeometry>
        </mxCell>
        <mxCell id="_FG94MKBac0RokUtaq1R-57" value="" style="verticalLabelPosition=bottom;shadow=0;align=center;html=1;verticalAlign=top;shape=mxgraph.electrical.logic_gates.logic_gate;operation=or;strokeWidth=7;" vertex="1" parent="1">
          <mxGeometry x="2451" y="-155" width="100" height="60" as="geometry" />
        </mxCell>
        <mxCell id="_FG94MKBac0RokUtaq1R-61" value="" style="verticalLabelPosition=bottom;shadow=0;align=center;html=1;verticalAlign=top;shape=mxgraph.electrical.logic_gates.inverter_2;strokeWidth=7;" vertex="1" parent="1">
          <mxGeometry x="2606" y="-155" width="100" height="60" as="geometry" />
        </mxCell>
        <mxCell id="_FG94MKBac0RokUtaq1R-62" style="edgeStyle=orthogonalEdgeStyle;rounded=0;orthogonalLoop=1;jettySize=auto;html=1;exitX=1;exitY=0.5;exitDx=0;exitDy=0;exitPerimeter=0;entryX=0;entryY=0.5;entryDx=0;entryDy=0;entryPerimeter=0;endArrow=none;endFill=0;strokeWidth=7;" edge="1" source="_FG94MKBac0RokUtaq1R-57" target="_FG94MKBac0RokUtaq1R-61" parent="1">
          <mxGeometry relative="1" as="geometry" />
        </mxCell>
        <mxCell id="_FG94MKBac0RokUtaq1R-63" value="" style="endArrow=oval;html=1;rounded=0;edgeStyle=orthogonalEdgeStyle;endFill=1;strokeWidth=7;" edge="1" parent="1">
          <mxGeometry width="50" height="50" relative="1" as="geometry">
            <mxPoint x="2706" y="-65" as="sourcePoint" />
            <mxPoint x="2576" y="-125" as="targetPoint" />
          </mxGeometry>
        </mxCell>
        <mxCell id="_FG94MKBac0RokUtaq1R-86" style="edgeStyle=orthogonalEdgeStyle;rounded=0;orthogonalLoop=1;jettySize=auto;html=1;exitX=1;exitY=0.5;exitDx=0;exitDy=0;exitPerimeter=0;endArrow=none;endFill=0;jumpStyle=none;strokeWidth=7;" edge="1" source="_FG94MKBac0RokUtaq1R-87" parent="1">
          <mxGeometry relative="1" as="geometry">
            <mxPoint x="2706" y="100" as="targetPoint" />
          </mxGeometry>
        </mxCell>
        <mxCell id="_FG94MKBac0RokUtaq1R-87" value="" style="verticalLabelPosition=bottom;shadow=0;align=center;html=1;verticalAlign=top;shape=mxgraph.electrical.logic_gates.logic_gate;operation=and;negating=1;negSize=0.15;strokeWidth=7;" vertex="1" parent="1">
          <mxGeometry x="2316" y="70" width="100" height="60" as="geometry" />
        </mxCell>
        <mxCell id="_FG94MKBac0RokUtaq1R-88" style="edgeStyle=orthogonalEdgeStyle;rounded=0;orthogonalLoop=1;jettySize=auto;html=1;exitX=1;exitY=0.5;exitDx=0;exitDy=0;exitPerimeter=0;endArrow=none;endFill=0;strokeWidth=7;" edge="1" source="_FG94MKBac0RokUtaq1R-89" parent="1">
          <mxGeometry relative="1" as="geometry">
            <mxPoint x="2706" y="280" as="targetPoint" />
          </mxGeometry>
        </mxCell>
        <mxCell id="_FG94MKBac0RokUtaq1R-89" value="" style="verticalLabelPosition=bottom;shadow=0;align=center;html=1;verticalAlign=top;shape=mxgraph.electrical.logic_gates.logic_gate;operation=and;negating=1;negSize=0.15;strokeWidth=7;" vertex="1" parent="1">
          <mxGeometry x="2316" y="250" width="100" height="60" as="geometry" />
        </mxCell>
        <mxCell id="_FG94MKBac0RokUtaq1R-90" style="edgeStyle=orthogonalEdgeStyle;rounded=0;orthogonalLoop=1;jettySize=auto;html=1;exitX=0;exitY=0.25;exitDx=0;exitDy=0;exitPerimeter=0;endArrow=oval;endFill=1;startArrow=none;startFill=0;strokeWidth=7;" edge="1" source="_FG94MKBac0RokUtaq1R-92" parent="1">
          <mxGeometry relative="1" as="geometry">
            <mxPoint x="2427" y="100" as="targetPoint" />
            <mxPoint x="2451" y="165" as="sourcePoint" />
            <Array as="points">
              <mxPoint x="2427" y="170" />
            </Array>
          </mxGeometry>
        </mxCell>
        <mxCell id="_FG94MKBac0RokUtaq1R-91" style="edgeStyle=orthogonalEdgeStyle;rounded=0;orthogonalLoop=1;jettySize=auto;html=1;endArrow=oval;endFill=1;exitX=0;exitY=0.75;exitDx=0;exitDy=0;exitPerimeter=0;strokeWidth=7;" edge="1" source="_FG94MKBac0RokUtaq1R-92" parent="1">
          <mxGeometry relative="1" as="geometry">
            <mxPoint x="2426" y="280" as="targetPoint" />
            <mxPoint x="2446" y="195" as="sourcePoint" />
            <Array as="points">
              <mxPoint x="2426" y="200" />
            </Array>
          </mxGeometry>
        </mxCell>
        <mxCell id="_FG94MKBac0RokUtaq1R-92" value="" style="verticalLabelPosition=bottom;shadow=0;align=center;html=1;verticalAlign=top;shape=mxgraph.electrical.logic_gates.logic_gate;operation=or;strokeWidth=7;" vertex="1" parent="1">
          <mxGeometry x="2451" y="155" width="100" height="60" as="geometry" />
        </mxCell>
        <mxCell id="_FG94MKBac0RokUtaq1R-96" value="" style="verticalLabelPosition=bottom;shadow=0;align=center;html=1;verticalAlign=top;shape=mxgraph.electrical.logic_gates.inverter_2;strokeWidth=7;" vertex="1" parent="1">
          <mxGeometry x="2606" y="155" width="100" height="60" as="geometry" />
        </mxCell>
        <mxCell id="_FG94MKBac0RokUtaq1R-97" style="edgeStyle=orthogonalEdgeStyle;rounded=0;orthogonalLoop=1;jettySize=auto;html=1;exitX=1;exitY=0.5;exitDx=0;exitDy=0;exitPerimeter=0;entryX=0;entryY=0.5;entryDx=0;entryDy=0;entryPerimeter=0;endArrow=none;endFill=0;strokeWidth=7;" edge="1" source="_FG94MKBac0RokUtaq1R-92" target="_FG94MKBac0RokUtaq1R-96" parent="1">
          <mxGeometry relative="1" as="geometry" />
        </mxCell>
        <mxCell id="_FG94MKBac0RokUtaq1R-98" value="" style="endArrow=oval;html=1;rounded=0;edgeStyle=orthogonalEdgeStyle;endFill=1;strokeWidth=7;" edge="1" parent="1">
          <mxGeometry width="50" height="50" relative="1" as="geometry">
            <mxPoint x="2706" y="245" as="sourcePoint" />
            <mxPoint x="2576" y="185" as="targetPoint" />
          </mxGeometry>
        </mxCell>
        <mxCell id="_FG94MKBac0RokUtaq1R-104" style="edgeStyle=orthogonalEdgeStyle;rounded=0;orthogonalLoop=1;jettySize=auto;html=1;exitX=1;exitY=0.5;exitDx=0;exitDy=0;exitPerimeter=0;endArrow=none;endFill=0;jumpStyle=none;strokeWidth=7;" edge="1" source="_FG94MKBac0RokUtaq1R-105" parent="1">
          <mxGeometry relative="1" as="geometry">
            <mxPoint x="2706" y="410" as="targetPoint" />
          </mxGeometry>
        </mxCell>
        <mxCell id="_FG94MKBac0RokUtaq1R-105" value="" style="verticalLabelPosition=bottom;shadow=0;align=center;html=1;verticalAlign=top;shape=mxgraph.electrical.logic_gates.logic_gate;operation=and;negating=1;negSize=0.15;strokeWidth=7;" vertex="1" parent="1">
          <mxGeometry x="2316" y="380" width="100" height="60" as="geometry" />
        </mxCell>
        <mxCell id="_FG94MKBac0RokUtaq1R-106" style="edgeStyle=orthogonalEdgeStyle;rounded=0;orthogonalLoop=1;jettySize=auto;html=1;exitX=1;exitY=0.5;exitDx=0;exitDy=0;exitPerimeter=0;endArrow=none;endFill=0;strokeWidth=7;" edge="1" source="_FG94MKBac0RokUtaq1R-107" parent="1">
          <mxGeometry relative="1" as="geometry">
            <mxPoint x="2706" y="590" as="targetPoint" />
          </mxGeometry>
        </mxCell>
        <mxCell id="_FG94MKBac0RokUtaq1R-107" value="" style="verticalLabelPosition=bottom;shadow=0;align=center;html=1;verticalAlign=top;shape=mxgraph.electrical.logic_gates.logic_gate;operation=and;negating=1;negSize=0.15;strokeWidth=7;" vertex="1" parent="1">
          <mxGeometry x="2316" y="560" width="100" height="60" as="geometry" />
        </mxCell>
        <mxCell id="_FG94MKBac0RokUtaq1R-108" style="edgeStyle=orthogonalEdgeStyle;rounded=0;orthogonalLoop=1;jettySize=auto;html=1;exitX=0;exitY=0.25;exitDx=0;exitDy=0;exitPerimeter=0;endArrow=oval;endFill=1;startArrow=none;startFill=0;strokeWidth=7;" edge="1" source="_FG94MKBac0RokUtaq1R-110" parent="1">
          <mxGeometry relative="1" as="geometry">
            <mxPoint x="2427" y="410" as="targetPoint" />
            <mxPoint x="2451" y="475" as="sourcePoint" />
            <Array as="points">
              <mxPoint x="2427" y="480" />
            </Array>
          </mxGeometry>
        </mxCell>
        <mxCell id="_FG94MKBac0RokUtaq1R-109" style="edgeStyle=orthogonalEdgeStyle;rounded=0;orthogonalLoop=1;jettySize=auto;html=1;endArrow=oval;endFill=1;exitX=0;exitY=0.75;exitDx=0;exitDy=0;exitPerimeter=0;strokeWidth=7;" edge="1" source="_FG94MKBac0RokUtaq1R-110" parent="1">
          <mxGeometry relative="1" as="geometry">
            <mxPoint x="2426" y="590" as="targetPoint" />
            <mxPoint x="2446" y="505" as="sourcePoint" />
            <Array as="points">
              <mxPoint x="2426" y="510" />
            </Array>
          </mxGeometry>
        </mxCell>
        <mxCell id="_FG94MKBac0RokUtaq1R-110" value="" style="verticalLabelPosition=bottom;shadow=0;align=center;html=1;verticalAlign=top;shape=mxgraph.electrical.logic_gates.logic_gate;operation=or;strokeWidth=7;" vertex="1" parent="1">
          <mxGeometry x="2451" y="465" width="100" height="60" as="geometry" />
        </mxCell>
        <mxCell id="_FG94MKBac0RokUtaq1R-114" value="" style="verticalLabelPosition=bottom;shadow=0;align=center;html=1;verticalAlign=top;shape=mxgraph.electrical.logic_gates.inverter_2;strokeWidth=7;" vertex="1" parent="1">
          <mxGeometry x="2606" y="465" width="100" height="60" as="geometry" />
        </mxCell>
        <mxCell id="_FG94MKBac0RokUtaq1R-115" style="edgeStyle=orthogonalEdgeStyle;rounded=0;orthogonalLoop=1;jettySize=auto;html=1;exitX=1;exitY=0.5;exitDx=0;exitDy=0;exitPerimeter=0;entryX=0;entryY=0.5;entryDx=0;entryDy=0;entryPerimeter=0;endArrow=none;endFill=0;strokeWidth=7;" edge="1" source="_FG94MKBac0RokUtaq1R-110" target="_FG94MKBac0RokUtaq1R-114" parent="1">
          <mxGeometry relative="1" as="geometry" />
        </mxCell>
        <mxCell id="_FG94MKBac0RokUtaq1R-116" value="" style="endArrow=oval;html=1;rounded=0;edgeStyle=orthogonalEdgeStyle;endFill=1;strokeWidth=7;" edge="1" parent="1">
          <mxGeometry width="50" height="50" relative="1" as="geometry">
            <mxPoint x="2706" y="555" as="sourcePoint" />
            <mxPoint x="2576" y="495" as="targetPoint" />
          </mxGeometry>
        </mxCell>
        <mxCell id="_FG94MKBac0RokUtaq1R-158" style="edgeStyle=orthogonalEdgeStyle;rounded=0;orthogonalLoop=1;jettySize=auto;html=1;exitX=1;exitY=0.5;exitDx=0;exitDy=0;exitPerimeter=0;endArrow=none;endFill=0;jumpStyle=none;strokeWidth=7;" edge="1" source="_FG94MKBac0RokUtaq1R-159" parent="1">
          <mxGeometry relative="1" as="geometry">
            <mxPoint x="2706" y="706" as="targetPoint" />
          </mxGeometry>
        </mxCell>
        <mxCell id="_FG94MKBac0RokUtaq1R-344" style="edgeStyle=orthogonalEdgeStyle;rounded=0;orthogonalLoop=1;jettySize=auto;html=1;endArrow=oval;endFill=1;exitX=0;exitY=0.25;exitDx=0;exitDy=0;exitPerimeter=0;strokeWidth=7;jumpStyle=arc;jumpSize=12;" edge="1" parent="1" source="_FG94MKBac0RokUtaq1R-159">
          <mxGeometry relative="1" as="geometry">
            <mxPoint x="218" y="690" as="targetPoint" />
            <mxPoint x="2278" y="690" as="sourcePoint" />
          </mxGeometry>
        </mxCell>
        <mxCell id="_FG94MKBac0RokUtaq1R-345" style="edgeStyle=orthogonalEdgeStyle;rounded=0;orthogonalLoop=1;jettySize=auto;html=1;exitX=0;exitY=0.75;exitDx=0;exitDy=0;exitPerimeter=0;endArrow=oval;endFill=1;strokeWidth=7;jumpStyle=arc;jumpSize=12;" edge="1" parent="1" source="_FG94MKBac0RokUtaq1R-159">
          <mxGeometry relative="1" as="geometry">
            <mxPoint x="1370" y="720.5" as="targetPoint" />
          </mxGeometry>
        </mxCell>
        <mxCell id="_FG94MKBac0RokUtaq1R-159" value="" style="verticalLabelPosition=bottom;shadow=0;align=center;html=1;verticalAlign=top;shape=mxgraph.electrical.logic_gates.logic_gate;operation=and;negating=1;negSize=0.15;strokeWidth=7;" vertex="1" parent="1">
          <mxGeometry x="2316" y="676" width="100" height="60" as="geometry" />
        </mxCell>
        <mxCell id="_FG94MKBac0RokUtaq1R-160" style="edgeStyle=orthogonalEdgeStyle;rounded=0;orthogonalLoop=1;jettySize=auto;html=1;exitX=1;exitY=0.5;exitDx=0;exitDy=0;exitPerimeter=0;endArrow=none;endFill=0;strokeWidth=7;" edge="1" source="_FG94MKBac0RokUtaq1R-170" parent="1">
          <mxGeometry relative="1" as="geometry">
            <mxPoint x="2706" y="886" as="targetPoint" />
          </mxGeometry>
        </mxCell>
        <mxCell id="_FG94MKBac0RokUtaq1R-161" style="edgeStyle=orthogonalEdgeStyle;rounded=0;orthogonalLoop=1;jettySize=auto;html=1;exitX=0;exitY=0.25;exitDx=0;exitDy=0;exitPerimeter=0;endArrow=oval;endFill=1;startArrow=none;startFill=0;strokeWidth=7;" edge="1" source="_FG94MKBac0RokUtaq1R-163" parent="1">
          <mxGeometry relative="1" as="geometry">
            <mxPoint x="2427" y="706" as="targetPoint" />
            <mxPoint x="2451" y="771" as="sourcePoint" />
            <Array as="points">
              <mxPoint x="2427" y="776" />
            </Array>
          </mxGeometry>
        </mxCell>
        <mxCell id="_FG94MKBac0RokUtaq1R-162" style="edgeStyle=orthogonalEdgeStyle;rounded=0;orthogonalLoop=1;jettySize=auto;html=1;endArrow=oval;endFill=1;exitX=0;exitY=0.75;exitDx=0;exitDy=0;exitPerimeter=0;strokeWidth=7;" edge="1" source="_FG94MKBac0RokUtaq1R-163" parent="1">
          <mxGeometry relative="1" as="geometry">
            <mxPoint x="2426" y="886" as="targetPoint" />
            <mxPoint x="2446" y="801" as="sourcePoint" />
            <Array as="points">
              <mxPoint x="2426" y="806" />
            </Array>
          </mxGeometry>
        </mxCell>
        <mxCell id="_FG94MKBac0RokUtaq1R-163" value="" style="verticalLabelPosition=bottom;shadow=0;align=center;html=1;verticalAlign=top;shape=mxgraph.electrical.logic_gates.logic_gate;operation=or;strokeWidth=7;" vertex="1" parent="1">
          <mxGeometry x="2451" y="761" width="100" height="60" as="geometry" />
        </mxCell>
        <mxCell id="_FG94MKBac0RokUtaq1R-167" value="" style="verticalLabelPosition=bottom;shadow=0;align=center;html=1;verticalAlign=top;shape=mxgraph.electrical.logic_gates.inverter_2;strokeWidth=7;" vertex="1" parent="1">
          <mxGeometry x="2606" y="761" width="100" height="60" as="geometry" />
        </mxCell>
        <mxCell id="_FG94MKBac0RokUtaq1R-168" style="edgeStyle=orthogonalEdgeStyle;rounded=0;orthogonalLoop=1;jettySize=auto;html=1;exitX=1;exitY=0.5;exitDx=0;exitDy=0;exitPerimeter=0;entryX=0;entryY=0.5;entryDx=0;entryDy=0;entryPerimeter=0;endArrow=none;endFill=0;strokeWidth=7;" edge="1" source="_FG94MKBac0RokUtaq1R-163" target="_FG94MKBac0RokUtaq1R-167" parent="1">
          <mxGeometry relative="1" as="geometry" />
        </mxCell>
        <mxCell id="_FG94MKBac0RokUtaq1R-169" value="" style="endArrow=oval;html=1;rounded=0;edgeStyle=orthogonalEdgeStyle;endFill=1;strokeWidth=7;" edge="1" parent="1">
          <mxGeometry width="50" height="50" relative="1" as="geometry">
            <mxPoint x="2706" y="851" as="sourcePoint" />
            <mxPoint x="2576" y="791" as="targetPoint" />
          </mxGeometry>
        </mxCell>
        <mxCell id="_FG94MKBac0RokUtaq1R-346" style="edgeStyle=orthogonalEdgeStyle;rounded=0;orthogonalLoop=1;jettySize=auto;html=1;exitX=0;exitY=0.25;exitDx=0;exitDy=0;exitPerimeter=0;endArrow=oval;endFill=1;strokeWidth=7;jumpStyle=arc;jumpSize=12;" edge="1" parent="1" source="_FG94MKBac0RokUtaq1R-170">
          <mxGeometry relative="1" as="geometry">
            <mxPoint x="1280" y="872" as="targetPoint" />
            <Array as="points">
              <mxPoint x="1798" y="871" />
              <mxPoint x="1380" y="872" />
            </Array>
          </mxGeometry>
        </mxCell>
        <mxCell id="_FG94MKBac0RokUtaq1R-347" style="edgeStyle=orthogonalEdgeStyle;rounded=0;orthogonalLoop=1;jettySize=auto;html=1;exitX=0;exitY=0.75;exitDx=0;exitDy=0;exitPerimeter=0;strokeWidth=7;endArrow=oval;endFill=1;" edge="1" parent="1" source="_FG94MKBac0RokUtaq1R-170">
          <mxGeometry relative="1" as="geometry">
            <mxPoint x="310" y="900" as="targetPoint" />
          </mxGeometry>
        </mxCell>
        <mxCell id="_FG94MKBac0RokUtaq1R-170" value="" style="verticalLabelPosition=bottom;shadow=0;align=center;html=1;verticalAlign=top;shape=mxgraph.electrical.logic_gates.logic_gate;operation=and;negating=1;negSize=0.15;strokeWidth=7;" vertex="1" parent="1">
          <mxGeometry x="2316" y="856" width="100" height="60" as="geometry" />
        </mxCell>
        <mxCell id="_FG94MKBac0RokUtaq1R-262" value="" style="endArrow=none;html=1;rounded=0;strokeWidth=7;" edge="1" parent="1">
          <mxGeometry width="50" height="50" relative="1" as="geometry">
            <mxPoint x="-670" y="1375.333251953125" as="sourcePoint" />
            <mxPoint x="-680" y="-1060" as="targetPoint" />
          </mxGeometry>
        </mxCell>
        <mxCell id="_FG94MKBac0RokUtaq1R-263" value="" style="endArrow=none;html=1;rounded=0;entryX=1;entryY=0.5;entryDx=0;entryDy=0;strokeWidth=7;strokeColor=#FF3333;" edge="1" parent="1" target="_FG94MKBac0RokUtaq1R-276">
          <mxGeometry width="50" height="50" relative="1" as="geometry">
            <mxPoint x="-580" y="1370" as="sourcePoint" />
            <mxPoint x="-570" y="-930" as="targetPoint" />
          </mxGeometry>
        </mxCell>
        <mxCell id="_FG94MKBac0RokUtaq1R-264" value="" style="endArrow=none;html=1;rounded=0;strokeWidth=7;" edge="1" parent="1">
          <mxGeometry width="50" height="50" relative="1" as="geometry">
            <mxPoint x="-300" y="1375.333251953125" as="sourcePoint" />
            <mxPoint x="-310" y="-1060" as="targetPoint" />
          </mxGeometry>
        </mxCell>
        <mxCell id="_FG94MKBac0RokUtaq1R-265" value="" style="endArrow=none;html=1;rounded=0;strokeWidth=7;" edge="1" parent="1">
          <mxGeometry width="50" height="50" relative="1" as="geometry">
            <mxPoint x="40" y="1375.333251953125" as="sourcePoint" />
            <mxPoint x="30" y="-1060" as="targetPoint" />
          </mxGeometry>
        </mxCell>
        <mxCell id="_FG94MKBac0RokUtaq1R-266" value="" style="endArrow=none;html=1;rounded=0;strokeWidth=7;" edge="1" parent="1">
          <mxGeometry width="50" height="50" relative="1" as="geometry">
            <mxPoint x="-140" y="1375.333251953125" as="sourcePoint" />
            <mxPoint x="-150" y="-1060" as="targetPoint" />
          </mxGeometry>
        </mxCell>
        <mxCell id="_FG94MKBac0RokUtaq1R-267" value="" style="endArrow=none;html=1;rounded=0;strokeWidth=7;" edge="1" parent="1">
          <mxGeometry width="50" height="50" relative="1" as="geometry">
            <mxPoint x="220" y="1375.333251953125" as="sourcePoint" />
            <mxPoint x="210" y="-1060" as="targetPoint" />
          </mxGeometry>
        </mxCell>
        <mxCell id="_FG94MKBac0RokUtaq1R-272" value="" style="endArrow=none;html=1;rounded=0;strokeWidth=7;" edge="1" parent="1">
          <mxGeometry width="50" height="50" relative="1" as="geometry">
            <mxPoint x="-470" y="1375.333251953125" as="sourcePoint" />
            <mxPoint x="-480" y="-1060" as="targetPoint" />
          </mxGeometry>
        </mxCell>
        <mxCell id="_FG94MKBac0RokUtaq1R-273" value="&lt;font style=&quot;font-size: 50px;&quot;&gt;&lt;b&gt;A&lt;sub&gt;0&lt;/sub&gt;&lt;/b&gt;&lt;/font&gt;" style="text;html=1;align=center;verticalAlign=middle;whiteSpace=wrap;rounded=0;" vertex="1" parent="1">
          <mxGeometry x="-700" y="-1100" width="60" height="30" as="geometry" />
        </mxCell>
        <mxCell id="_FG94MKBac0RokUtaq1R-275" value="&lt;font style=&quot;font-size: 50px;&quot;&gt;&lt;b style=&quot;&quot;&gt;A&lt;sub style=&quot;&quot;&gt;2&lt;/sub&gt;&lt;/b&gt;&lt;/font&gt;" style="text;html=1;align=center;verticalAlign=middle;whiteSpace=wrap;rounded=0;" vertex="1" parent="1">
          <mxGeometry x="-340" y="-1101" width="60" height="30" as="geometry" />
        </mxCell>
        <mxCell id="_FG94MKBac0RokUtaq1R-276" value="" style="verticalLabelPosition=bottom;shadow=0;align=center;html=1;verticalAlign=top;shape=mxgraph.electrical.logic_gates.buffer2;strokeWidth=7;" vertex="1" parent="1">
          <mxGeometry x="-680" y="-980" width="100" height="60" as="geometry" />
        </mxCell>
        <mxCell id="_FG94MKBac0RokUtaq1R-277" value="" style="endArrow=none;html=1;rounded=0;entryX=1;entryY=0.5;entryDx=0;entryDy=0;strokeWidth=7;strokeColor=#FF3333;" edge="1" parent="1" target="_FG94MKBac0RokUtaq1R-278">
          <mxGeometry width="50" height="50" relative="1" as="geometry">
            <mxPoint x="-380" y="1373" as="sourcePoint" />
            <mxPoint x="-370" y="-927" as="targetPoint" />
          </mxGeometry>
        </mxCell>
        <mxCell id="_FG94MKBac0RokUtaq1R-278" value="" style="verticalLabelPosition=bottom;shadow=0;align=center;html=1;verticalAlign=top;shape=mxgraph.electrical.logic_gates.buffer2;strokeWidth=7;" vertex="1" parent="1">
          <mxGeometry x="-480" y="-977" width="100" height="60" as="geometry" />
        </mxCell>
        <mxCell id="_FG94MKBac0RokUtaq1R-279" value="&lt;font style=&quot;font-size: 50px;&quot;&gt;&lt;b style=&quot;&quot;&gt;A&lt;sub style=&quot;&quot;&gt;1&lt;/sub&gt;&lt;/b&gt;&lt;/font&gt;" style="text;html=1;align=center;verticalAlign=middle;whiteSpace=wrap;rounded=0;" vertex="1" parent="1">
          <mxGeometry x="-510" y="-1101" width="60" height="30" as="geometry" />
        </mxCell>
        <mxCell id="_FG94MKBac0RokUtaq1R-280" value="&lt;font style=&quot;font-size: 50px;&quot;&gt;&lt;b style=&quot;&quot;&gt;A&lt;sub style=&quot;&quot;&gt;3&lt;/sub&gt;&lt;/b&gt;&lt;/font&gt;" style="text;html=1;align=center;verticalAlign=middle;whiteSpace=wrap;rounded=0;" vertex="1" parent="1">
          <mxGeometry x="-170" y="-1101" width="60" height="30" as="geometry" />
        </mxCell>
        <mxCell id="_FG94MKBac0RokUtaq1R-281" value="&lt;font style=&quot;font-size: 50px;&quot;&gt;&lt;b style=&quot;&quot;&gt;A&lt;sub style=&quot;&quot;&gt;4&lt;/sub&gt;&lt;/b&gt;&lt;/font&gt;" style="text;html=1;align=center;verticalAlign=middle;whiteSpace=wrap;rounded=0;" vertex="1" parent="1">
          <mxGeometry y="-1101" width="60" height="30" as="geometry" />
        </mxCell>
        <mxCell id="_FG94MKBac0RokUtaq1R-282" value="&lt;font style=&quot;font-size: 50px;&quot;&gt;&lt;b style=&quot;&quot;&gt;A&lt;sub style=&quot;&quot;&gt;5&lt;/sub&gt;&lt;/b&gt;&lt;/font&gt;" style="text;html=1;align=center;verticalAlign=middle;whiteSpace=wrap;rounded=0;" vertex="1" parent="1">
          <mxGeometry x="190" y="-1101" width="60" height="30" as="geometry" />
        </mxCell>
        <mxCell id="_FG94MKBac0RokUtaq1R-283" value="" style="endArrow=none;html=1;rounded=0;entryX=1;entryY=0.5;entryDx=0;entryDy=0;strokeWidth=7;strokeColor=#FF3333;" edge="1" parent="1" target="_FG94MKBac0RokUtaq1R-284">
          <mxGeometry width="50" height="50" relative="1" as="geometry">
            <mxPoint x="-210" y="1370" as="sourcePoint" />
            <mxPoint x="-200" y="-930" as="targetPoint" />
          </mxGeometry>
        </mxCell>
        <mxCell id="_FG94MKBac0RokUtaq1R-284" value="" style="verticalLabelPosition=bottom;shadow=0;align=center;html=1;verticalAlign=top;shape=mxgraph.electrical.logic_gates.buffer2;strokeWidth=7;" vertex="1" parent="1">
          <mxGeometry x="-310" y="-980" width="100" height="60" as="geometry" />
        </mxCell>
        <mxCell id="_FG94MKBac0RokUtaq1R-285" value="" style="endArrow=none;html=1;rounded=0;entryX=1;entryY=0.5;entryDx=0;entryDy=0;strokeWidth=7;strokeColor=#FF3333;" edge="1" parent="1" target="_FG94MKBac0RokUtaq1R-286">
          <mxGeometry width="50" height="50" relative="1" as="geometry">
            <mxPoint x="-50" y="1370" as="sourcePoint" />
            <mxPoint x="-40" y="-930" as="targetPoint" />
          </mxGeometry>
        </mxCell>
        <mxCell id="_FG94MKBac0RokUtaq1R-286" value="" style="verticalLabelPosition=bottom;shadow=0;align=center;html=1;verticalAlign=top;shape=mxgraph.electrical.logic_gates.buffer2;strokeWidth=7;" vertex="1" parent="1">
          <mxGeometry x="-150" y="-980" width="100" height="60" as="geometry" />
        </mxCell>
        <mxCell id="_FG94MKBac0RokUtaq1R-288" value="" style="verticalLabelPosition=bottom;shadow=0;align=center;html=1;verticalAlign=top;shape=mxgraph.electrical.logic_gates.buffer2;strokeWidth=7;" vertex="1" parent="1">
          <mxGeometry x="30" y="-980" width="100" height="60" as="geometry" />
        </mxCell>
        <mxCell id="_FG94MKBac0RokUtaq1R-289" value="" style="endArrow=none;html=1;rounded=0;entryX=1;entryY=0.5;entryDx=0;entryDy=0;strokeWidth=7;strokeColor=#FF3333;" edge="1" target="_FG94MKBac0RokUtaq1R-288" parent="1">
          <mxGeometry width="50" height="50" relative="1" as="geometry">
            <mxPoint x="130" y="1370" as="sourcePoint" />
            <mxPoint x="140" y="-930" as="targetPoint" />
          </mxGeometry>
        </mxCell>
        <mxCell id="_FG94MKBac0RokUtaq1R-290" value="" style="verticalLabelPosition=bottom;shadow=0;align=center;html=1;verticalAlign=top;shape=mxgraph.electrical.logic_gates.buffer2;strokeWidth=7;" vertex="1" parent="1">
          <mxGeometry x="210" y="-980" width="100" height="60" as="geometry" />
        </mxCell>
        <mxCell id="_FG94MKBac0RokUtaq1R-291" value="" style="endArrow=none;html=1;rounded=0;entryX=1;entryY=0.5;entryDx=0;entryDy=0;strokeWidth=7;strokeColor=#FF3333;" edge="1" target="_FG94MKBac0RokUtaq1R-290" parent="1">
          <mxGeometry width="50" height="50" relative="1" as="geometry">
            <mxPoint x="310" y="1370" as="sourcePoint" />
            <mxPoint x="320" y="-930" as="targetPoint" />
          </mxGeometry>
        </mxCell>
        <mxCell id="_FG94MKBac0RokUtaq1R-292" value="" style="endArrow=none;html=1;rounded=0;strokeWidth=7;" edge="1" parent="1">
          <mxGeometry width="50" height="50" relative="1" as="geometry">
            <mxPoint x="390" y="1375.333251953125" as="sourcePoint" />
            <mxPoint x="380" y="-1060" as="targetPoint" />
          </mxGeometry>
        </mxCell>
        <mxCell id="_FG94MKBac0RokUtaq1R-293" value="" style="endArrow=none;html=1;rounded=0;entryX=1;entryY=0.5;entryDx=0;entryDy=0;strokeWidth=7;strokeColor=#FF3333;" edge="1" target="_FG94MKBac0RokUtaq1R-301" parent="1">
          <mxGeometry width="50" height="50" relative="1" as="geometry">
            <mxPoint x="480" y="1370" as="sourcePoint" />
            <mxPoint x="490" y="-930" as="targetPoint" />
          </mxGeometry>
        </mxCell>
        <mxCell id="_FG94MKBac0RokUtaq1R-294" value="" style="endArrow=none;html=1;rounded=0;strokeWidth=7;" edge="1" parent="1">
          <mxGeometry width="50" height="50" relative="1" as="geometry">
            <mxPoint x="760" y="1375.333251953125" as="sourcePoint" />
            <mxPoint x="750" y="-1060" as="targetPoint" />
          </mxGeometry>
        </mxCell>
        <mxCell id="_FG94MKBac0RokUtaq1R-295" value="" style="endArrow=none;html=1;rounded=0;strokeWidth=7;" edge="1" parent="1">
          <mxGeometry width="50" height="50" relative="1" as="geometry">
            <mxPoint x="1100" y="1375.333251953125" as="sourcePoint" />
            <mxPoint x="1090" y="-1060" as="targetPoint" />
          </mxGeometry>
        </mxCell>
        <mxCell id="_FG94MKBac0RokUtaq1R-296" value="" style="endArrow=none;html=1;rounded=0;strokeWidth=7;" edge="1" parent="1">
          <mxGeometry width="50" height="50" relative="1" as="geometry">
            <mxPoint x="920" y="1375.333251953125" as="sourcePoint" />
            <mxPoint x="910" y="-1060" as="targetPoint" />
          </mxGeometry>
        </mxCell>
        <mxCell id="_FG94MKBac0RokUtaq1R-297" value="" style="endArrow=none;html=1;rounded=0;strokeWidth=7;" edge="1" parent="1">
          <mxGeometry width="50" height="50" relative="1" as="geometry">
            <mxPoint x="1280" y="1375.333251953125" as="sourcePoint" />
            <mxPoint x="1270" y="-1060" as="targetPoint" />
          </mxGeometry>
        </mxCell>
        <mxCell id="_FG94MKBac0RokUtaq1R-298" value="" style="endArrow=none;html=1;rounded=0;strokeWidth=7;" edge="1" parent="1">
          <mxGeometry width="50" height="50" relative="1" as="geometry">
            <mxPoint x="590" y="1375.333251953125" as="sourcePoint" />
            <mxPoint x="580" y="-1060" as="targetPoint" />
          </mxGeometry>
        </mxCell>
        <mxCell id="_FG94MKBac0RokUtaq1R-299" value="&lt;span style=&quot;font-size: 50px;&quot;&gt;&lt;b&gt;B&lt;sub&gt;0&lt;/sub&gt;&lt;/b&gt;&lt;/span&gt;" style="text;html=1;align=center;verticalAlign=middle;whiteSpace=wrap;rounded=0;" vertex="1" parent="1">
          <mxGeometry x="360" y="-1100" width="60" height="30" as="geometry" />
        </mxCell>
        <mxCell id="_FG94MKBac0RokUtaq1R-300" value="&lt;span style=&quot;font-size: 50px;&quot;&gt;&lt;b&gt;B&lt;sub&gt;2&lt;/sub&gt;&lt;/b&gt;&lt;/span&gt;" style="text;html=1;align=center;verticalAlign=middle;whiteSpace=wrap;rounded=0;" vertex="1" parent="1">
          <mxGeometry x="720" y="-1101" width="60" height="30" as="geometry" />
        </mxCell>
        <mxCell id="_FG94MKBac0RokUtaq1R-301" value="" style="verticalLabelPosition=bottom;shadow=0;align=center;html=1;verticalAlign=top;shape=mxgraph.electrical.logic_gates.buffer2;strokeWidth=7;" vertex="1" parent="1">
          <mxGeometry x="380" y="-980" width="100" height="60" as="geometry" />
        </mxCell>
        <mxCell id="_FG94MKBac0RokUtaq1R-302" value="" style="endArrow=none;html=1;rounded=0;entryX=1;entryY=0.5;entryDx=0;entryDy=0;strokeWidth=7;strokeColor=#FF3333;" edge="1" target="_FG94MKBac0RokUtaq1R-303" parent="1">
          <mxGeometry width="50" height="50" relative="1" as="geometry">
            <mxPoint x="680" y="1373" as="sourcePoint" />
            <mxPoint x="690" y="-927" as="targetPoint" />
          </mxGeometry>
        </mxCell>
        <mxCell id="_FG94MKBac0RokUtaq1R-303" value="" style="verticalLabelPosition=bottom;shadow=0;align=center;html=1;verticalAlign=top;shape=mxgraph.electrical.logic_gates.buffer2;strokeWidth=7;" vertex="1" parent="1">
          <mxGeometry x="580" y="-977" width="100" height="60" as="geometry" />
        </mxCell>
        <mxCell id="_FG94MKBac0RokUtaq1R-304" value="&lt;b style=&quot;&quot;&gt;&lt;span style=&quot;font-size: 50px;&quot;&gt;B&lt;/span&gt;&lt;span style=&quot;font-size: 41.6667px;&quot;&gt;1&lt;/span&gt;&lt;/b&gt;" style="text;html=1;align=center;verticalAlign=middle;whiteSpace=wrap;rounded=0;" vertex="1" parent="1">
          <mxGeometry x="550" y="-1101" width="60" height="30" as="geometry" />
        </mxCell>
        <mxCell id="_FG94MKBac0RokUtaq1R-305" value="&lt;span style=&quot;font-size: 50px;&quot;&gt;&lt;b&gt;B&lt;sub&gt;3&lt;/sub&gt;&lt;/b&gt;&lt;/span&gt;" style="text;html=1;align=center;verticalAlign=middle;whiteSpace=wrap;rounded=0;" vertex="1" parent="1">
          <mxGeometry x="890" y="-1101" width="60" height="30" as="geometry" />
        </mxCell>
        <mxCell id="_FG94MKBac0RokUtaq1R-306" value="&lt;span style=&quot;font-size: 50px;&quot;&gt;&lt;b&gt;B&lt;sub&gt;4&lt;/sub&gt;&lt;/b&gt;&lt;/span&gt;" style="text;html=1;align=center;verticalAlign=middle;whiteSpace=wrap;rounded=0;" vertex="1" parent="1">
          <mxGeometry x="1060" y="-1101" width="60" height="30" as="geometry" />
        </mxCell>
        <mxCell id="_FG94MKBac0RokUtaq1R-307" value="&lt;b style=&quot;&quot;&gt;&lt;span style=&quot;font-size: 50px;&quot;&gt;B&lt;/span&gt;&lt;span style=&quot;font-size: 41.6667px;&quot;&gt;&lt;sub&gt;5&lt;/sub&gt;&lt;/span&gt;&lt;/b&gt;" style="text;html=1;align=center;verticalAlign=middle;whiteSpace=wrap;rounded=0;" vertex="1" parent="1">
          <mxGeometry x="1250" y="-1101" width="60" height="30" as="geometry" />
        </mxCell>
        <mxCell id="_FG94MKBac0RokUtaq1R-308" value="" style="endArrow=none;html=1;rounded=0;entryX=1;entryY=0.5;entryDx=0;entryDy=0;strokeWidth=7;strokeColor=#FF3333;" edge="1" target="_FG94MKBac0RokUtaq1R-309" parent="1">
          <mxGeometry width="50" height="50" relative="1" as="geometry">
            <mxPoint x="850" y="1370" as="sourcePoint" />
            <mxPoint x="860" y="-930" as="targetPoint" />
          </mxGeometry>
        </mxCell>
        <mxCell id="_FG94MKBac0RokUtaq1R-309" value="" style="verticalLabelPosition=bottom;shadow=0;align=center;html=1;verticalAlign=top;shape=mxgraph.electrical.logic_gates.buffer2;strokeWidth=7;" vertex="1" parent="1">
          <mxGeometry x="750" y="-980" width="100" height="60" as="geometry" />
        </mxCell>
        <mxCell id="_FG94MKBac0RokUtaq1R-310" value="" style="endArrow=none;html=1;rounded=0;entryX=1;entryY=0.5;entryDx=0;entryDy=0;strokeWidth=7;strokeColor=#FF3333;" edge="1" target="_FG94MKBac0RokUtaq1R-311" parent="1">
          <mxGeometry width="50" height="50" relative="1" as="geometry">
            <mxPoint x="1010" y="1370" as="sourcePoint" />
            <mxPoint x="1020" y="-930" as="targetPoint" />
          </mxGeometry>
        </mxCell>
        <mxCell id="_FG94MKBac0RokUtaq1R-311" value="" style="verticalLabelPosition=bottom;shadow=0;align=center;html=1;verticalAlign=top;shape=mxgraph.electrical.logic_gates.buffer2;strokeWidth=7;" vertex="1" parent="1">
          <mxGeometry x="910" y="-980" width="100" height="60" as="geometry" />
        </mxCell>
        <mxCell id="_FG94MKBac0RokUtaq1R-312" value="" style="verticalLabelPosition=bottom;shadow=0;align=center;html=1;verticalAlign=top;shape=mxgraph.electrical.logic_gates.buffer2;strokeWidth=7;" vertex="1" parent="1">
          <mxGeometry x="1090" y="-980" width="100" height="60" as="geometry" />
        </mxCell>
        <mxCell id="_FG94MKBac0RokUtaq1R-313" value="" style="endArrow=none;html=1;rounded=0;entryX=1;entryY=0.5;entryDx=0;entryDy=0;strokeWidth=7;strokeColor=#FF3333;" edge="1" target="_FG94MKBac0RokUtaq1R-312" parent="1">
          <mxGeometry width="50" height="50" relative="1" as="geometry">
            <mxPoint x="1190" y="1370" as="sourcePoint" />
            <mxPoint x="1200" y="-930" as="targetPoint" />
          </mxGeometry>
        </mxCell>
        <mxCell id="_FG94MKBac0RokUtaq1R-314" value="" style="verticalLabelPosition=bottom;shadow=0;align=center;html=1;verticalAlign=top;shape=mxgraph.electrical.logic_gates.buffer2;strokeWidth=7;" vertex="1" parent="1">
          <mxGeometry x="1270" y="-980" width="100" height="60" as="geometry" />
        </mxCell>
        <mxCell id="_FG94MKBac0RokUtaq1R-315" value="" style="endArrow=none;html=1;rounded=0;entryX=1;entryY=0.5;entryDx=0;entryDy=0;jumpStyle=none;strokeWidth=7;strokeColor=#FF3333;" edge="1" target="_FG94MKBac0RokUtaq1R-314" parent="1">
          <mxGeometry width="50" height="50" relative="1" as="geometry">
            <mxPoint x="1370" y="1370" as="sourcePoint" />
            <mxPoint x="1380" y="-930" as="targetPoint" />
          </mxGeometry>
        </mxCell>
        <mxCell id="_FG94MKBac0RokUtaq1R-317" value="" style="endArrow=none;html=1;rounded=0;entryX=0;entryY=0.75;entryDx=0;entryDy=0;entryPerimeter=0;jumpStyle=arc;jumpSize=12;startArrow=oval;startFill=1;strokeWidth=7;" edge="1" parent="1" target="_FG94MKBac0RokUtaq1R-10">
          <mxGeometry width="50" height="50" relative="1" as="geometry">
            <mxPoint x="480" y="-815" as="sourcePoint" />
            <mxPoint x="690" y="-580" as="targetPoint" />
          </mxGeometry>
        </mxCell>
        <mxCell id="_FG94MKBac0RokUtaq1R-318" value="" style="endArrow=none;html=1;rounded=0;entryX=0;entryY=0.25;entryDx=0;entryDy=0;entryPerimeter=0;jumpStyle=arc;jumpSize=12;startArrow=oval;startFill=1;strokeWidth=7;" edge="1" parent="1" target="_FG94MKBac0RokUtaq1R-10">
          <mxGeometry width="50" height="50" relative="1" as="geometry">
            <mxPoint x="-680" y="-845" as="sourcePoint" />
            <mxPoint x="1180" y="-250" as="targetPoint" />
          </mxGeometry>
        </mxCell>
        <mxCell id="_FG94MKBac0RokUtaq1R-319" value="" style="endArrow=none;html=1;rounded=0;entryX=0;entryY=0.25;entryDx=0;entryDy=0;entryPerimeter=0;jumpStyle=arc;jumpSize=12;startArrow=oval;startFill=1;strokeWidth=7;" edge="1" parent="1" target="_FG94MKBac0RokUtaq1R-11">
          <mxGeometry width="50" height="50" relative="1" as="geometry">
            <mxPoint x="-580" y="-665" as="sourcePoint" />
            <mxPoint x="2306" y="-665" as="targetPoint" />
          </mxGeometry>
        </mxCell>
        <mxCell id="_FG94MKBac0RokUtaq1R-324" style="rounded=0;orthogonalLoop=1;jettySize=auto;html=1;exitX=0;exitY=0.25;exitDx=0;exitDy=0;exitPerimeter=0;endArrow=oval;endFill=1;jumpStyle=arc;jumpSize=12;strokeWidth=7;" edge="1" parent="1" source="_FG94MKBac0RokUtaq1R-34">
          <mxGeometry relative="1" as="geometry">
            <mxPoint x="-477" y="-540" as="targetPoint" />
            <mxPoint x="2309" y="-535" as="sourcePoint" />
          </mxGeometry>
        </mxCell>
        <mxCell id="_FG94MKBac0RokUtaq1R-323" value="" style="endArrow=none;html=1;rounded=0;entryX=0;entryY=0.75;entryDx=0;entryDy=0;entryPerimeter=0;startArrow=oval;startFill=1;jumpStyle=arc;jumpSize=12;strokeWidth=7;" edge="1" parent="1" target="_FG94MKBac0RokUtaq1R-11">
          <mxGeometry width="50" height="50" relative="1" as="geometry">
            <mxPoint x="380" y="-640" as="sourcePoint" />
            <mxPoint x="1020" y="-630" as="targetPoint" />
          </mxGeometry>
        </mxCell>
        <mxCell id="_FG94MKBac0RokUtaq1R-325" style="edgeStyle=orthogonalEdgeStyle;rounded=0;orthogonalLoop=1;jettySize=auto;html=1;exitX=0;exitY=0.75;exitDx=0;exitDy=0;exitPerimeter=0;endArrow=oval;endFill=1;jumpStyle=arc;jumpSize=12;strokeWidth=7;" edge="1" parent="1" source="_FG94MKBac0RokUtaq1R-34">
          <mxGeometry relative="1" as="geometry">
            <mxPoint x="680" y="-505" as="targetPoint" />
          </mxGeometry>
        </mxCell>
        <mxCell id="_FG94MKBac0RokUtaq1R-327" style="edgeStyle=orthogonalEdgeStyle;rounded=0;orthogonalLoop=1;jettySize=auto;html=1;exitX=0;exitY=0.25;exitDx=0;exitDy=0;exitPerimeter=0;endArrow=oval;endFill=1;jumpStyle=arc;jumpSize=12;strokeWidth=7;" edge="1" parent="1" source="_FG94MKBac0RokUtaq1R-36">
          <mxGeometry relative="1" as="geometry">
            <mxPoint x="-380" y="-356" as="targetPoint" />
          </mxGeometry>
        </mxCell>
        <mxCell id="_FG94MKBac0RokUtaq1R-329" style="edgeStyle=orthogonalEdgeStyle;rounded=0;orthogonalLoop=1;jettySize=auto;html=1;exitX=0;exitY=0.75;exitDx=0;exitDy=0;exitPerimeter=0;endArrow=oval;endFill=1;jumpStyle=arc;jumpSize=12;strokeWidth=7;" edge="1" parent="1" source="_FG94MKBac0RokUtaq1R-36">
          <mxGeometry relative="1" as="geometry">
            <mxPoint x="584" y="-324" as="targetPoint" />
            <mxPoint x="2310" y="-325" as="sourcePoint" />
          </mxGeometry>
        </mxCell>
        <mxCell id="_FG94MKBac0RokUtaq1R-330" style="edgeStyle=orthogonalEdgeStyle;rounded=0;orthogonalLoop=1;jettySize=auto;html=1;exitX=0;exitY=0.25;exitDx=0;exitDy=0;exitPerimeter=0;endArrow=oval;endFill=1;jumpStyle=arc;jumpSize=12;strokeWidth=7;" edge="1" parent="1" source="_FG94MKBac0RokUtaq1R-52">
          <mxGeometry relative="1" as="geometry">
            <mxPoint x="-306" y="-225" as="targetPoint" />
            <mxPoint x="2310" y="-225" as="sourcePoint" />
          </mxGeometry>
        </mxCell>
        <mxCell id="_FG94MKBac0RokUtaq1R-331" style="edgeStyle=orthogonalEdgeStyle;rounded=0;orthogonalLoop=1;jettySize=auto;html=1;exitX=0;exitY=0.75;exitDx=0;exitDy=0;exitPerimeter=0;endArrow=oval;endFill=1;jumpStyle=arc;jumpSize=12;strokeWidth=7;" edge="1" parent="1" source="_FG94MKBac0RokUtaq1R-52">
          <mxGeometry relative="1" as="geometry">
            <mxPoint x="850" y="-194" as="targetPoint" />
            <mxPoint x="2310" y="-195" as="sourcePoint" />
          </mxGeometry>
        </mxCell>
        <mxCell id="_FG94MKBac0RokUtaq1R-333" style="edgeStyle=orthogonalEdgeStyle;rounded=0;orthogonalLoop=1;jettySize=auto;html=1;exitX=0;exitY=0.25;exitDx=0;exitDy=0;exitPerimeter=0;endArrow=oval;endFill=1;strokeWidth=7;jumpStyle=arc;jumpSize=12;" edge="1" parent="1" source="_FG94MKBac0RokUtaq1R-54">
          <mxGeometry relative="1" as="geometry">
            <mxPoint x="-210" y="-46" as="targetPoint" />
          </mxGeometry>
        </mxCell>
        <mxCell id="_FG94MKBac0RokUtaq1R-334" style="edgeStyle=orthogonalEdgeStyle;rounded=0;orthogonalLoop=1;jettySize=auto;html=1;exitX=0;exitY=0.75;exitDx=0;exitDy=0;exitPerimeter=0;endArrow=oval;endFill=1;strokeWidth=7;jumpStyle=arc;jumpSize=12;" edge="1" parent="1" source="_FG94MKBac0RokUtaq1R-54">
          <mxGeometry relative="1" as="geometry">
            <mxPoint x="755" y="-16" as="targetPoint" />
            <mxPoint x="2311.000000000001" y="-15" as="sourcePoint" />
          </mxGeometry>
        </mxCell>
        <mxCell id="_FG94MKBac0RokUtaq1R-335" style="edgeStyle=orthogonalEdgeStyle;rounded=0;orthogonalLoop=1;jettySize=auto;html=1;exitX=0;exitY=0.25;exitDx=0;exitDy=0;exitPerimeter=0;endArrow=oval;endFill=1;strokeWidth=7;jumpStyle=arc;jumpSize=12;" edge="1" parent="1" source="_FG94MKBac0RokUtaq1R-87">
          <mxGeometry relative="1" as="geometry">
            <mxPoint x="-145" y="84" as="targetPoint" />
            <mxPoint x="2311" y="85" as="sourcePoint" />
          </mxGeometry>
        </mxCell>
        <mxCell id="_FG94MKBac0RokUtaq1R-336" style="edgeStyle=orthogonalEdgeStyle;rounded=0;orthogonalLoop=1;jettySize=auto;html=1;exitX=0;exitY=0.75;exitDx=0;exitDy=0;exitPerimeter=0;endArrow=oval;endFill=1;strokeWidth=7;jumpStyle=arc;jumpSize=12;" edge="1" parent="1" source="_FG94MKBac0RokUtaq1R-87">
          <mxGeometry relative="1" as="geometry">
            <mxPoint x="1010" y="115" as="targetPoint" />
            <mxPoint x="2312" y="115" as="sourcePoint" />
          </mxGeometry>
        </mxCell>
        <mxCell id="_FG94MKBac0RokUtaq1R-337" style="edgeStyle=orthogonalEdgeStyle;rounded=0;orthogonalLoop=1;jettySize=auto;html=1;exitX=0;exitY=0.25;exitDx=0;exitDy=0;exitPerimeter=0;endArrow=oval;endFill=1;strokeWidth=7;jumpStyle=arc;jumpSize=12;" edge="1" parent="1" source="_FG94MKBac0RokUtaq1R-89">
          <mxGeometry relative="1" as="geometry">
            <mxPoint x="-50" y="264" as="targetPoint" />
          </mxGeometry>
        </mxCell>
        <mxCell id="_FG94MKBac0RokUtaq1R-338" style="edgeStyle=orthogonalEdgeStyle;rounded=0;orthogonalLoop=1;jettySize=auto;html=1;exitX=0;exitY=0.75;exitDx=0;exitDy=0;exitPerimeter=0;endArrow=oval;endFill=1;strokeWidth=7;jumpStyle=arc;jumpSize=12;" edge="1" parent="1" source="_FG94MKBac0RokUtaq1R-89">
          <mxGeometry relative="1" as="geometry">
            <mxPoint x="915" y="295" as="targetPoint" />
            <mxPoint x="2311" y="295" as="sourcePoint" />
          </mxGeometry>
        </mxCell>
        <mxCell id="_FG94MKBac0RokUtaq1R-340" style="edgeStyle=orthogonalEdgeStyle;rounded=0;orthogonalLoop=1;jettySize=auto;html=1;exitX=0;exitY=0.25;exitDx=0;exitDy=0;exitPerimeter=0;strokeWidth=7;endArrow=oval;endFill=1;jumpStyle=arc;jumpSize=12;" edge="1" parent="1" source="_FG94MKBac0RokUtaq1R-105">
          <mxGeometry relative="1" as="geometry">
            <mxPoint x="35" y="394" as="targetPoint" />
            <mxPoint x="2321" y="394.99999999999955" as="sourcePoint" />
          </mxGeometry>
        </mxCell>
        <mxCell id="_FG94MKBac0RokUtaq1R-341" style="edgeStyle=orthogonalEdgeStyle;rounded=0;orthogonalLoop=1;jettySize=auto;html=1;exitX=0;exitY=0.75;exitDx=0;exitDy=0;exitPerimeter=0;strokeWidth=7;endArrow=oval;endFill=1;jumpStyle=arc;jumpSize=12;" edge="1" parent="1" source="_FG94MKBac0RokUtaq1R-105">
          <mxGeometry relative="1" as="geometry">
            <mxPoint x="1190" y="424" as="targetPoint" />
          </mxGeometry>
        </mxCell>
        <mxCell id="_FG94MKBac0RokUtaq1R-342" style="edgeStyle=orthogonalEdgeStyle;rounded=0;orthogonalLoop=1;jettySize=auto;html=1;exitX=0;exitY=0.25;exitDx=0;exitDy=0;exitPerimeter=0;endArrow=oval;endFill=1;strokeWidth=7;jumpStyle=arc;jumpSize=12;" edge="1" parent="1" source="_FG94MKBac0RokUtaq1R-107">
          <mxGeometry relative="1" as="geometry">
            <mxPoint x="129" y="573" as="targetPoint" />
            <mxPoint x="2305" y="573" as="sourcePoint" />
          </mxGeometry>
        </mxCell>
        <mxCell id="_FG94MKBac0RokUtaq1R-343" style="edgeStyle=orthogonalEdgeStyle;rounded=0;orthogonalLoop=1;jettySize=auto;html=1;endArrow=oval;endFill=1;exitX=0;exitY=0.75;exitDx=0;exitDy=0;exitPerimeter=0;strokeWidth=7;jumpStyle=arc;jumpSize=12;" edge="1" parent="1" source="_FG94MKBac0RokUtaq1R-107">
          <mxGeometry relative="1" as="geometry">
            <mxPoint x="1096" y="607" as="targetPoint" />
            <mxPoint x="2276" y="607" as="sourcePoint" />
          </mxGeometry>
        </mxCell>
      </root>
    </mxGraphModel>
  </diagram>
</mxfile>
